<svg width="72" height="73" viewBox="0 0 72 73" fill="none" xmlns="http://www.w3.org/2000/svg">
<g id="ic-diet-sm" clip-path="url(#clip0_2871_1314)">
<path id="Vector" d="M33.4296 12.4524C32.1201 12.4524 31.0486 13.5238 31.0486 14.8334V26.3334C31.0486 28.7143 29.6439 30.7381 28.001 30.7381H26.6915V10.5953C26.6915 9.28575 25.6201 8.21432 24.3105 8.21432C23.001 8.21432 21.9296 9.28575 21.9296 10.5953V30.7381H20.6201C18.9772 30.7381 17.5725 28.7143 17.5725 26.3334V14.8334C17.5725 13.5238 16.501 12.4524 15.1915 12.4524C13.882 12.4524 12.8105 13.5238 12.8105 14.8334V26.3334C12.8105 31.381 16.3105 35.5 20.6201 35.5H21.9296V39.9524H20.9296C19.3344 39.9524 18.0486 41.2381 18.0486 42.8334V62.1667C18.0486 63.7619 19.3344 65.0477 20.9296 65.0477H27.7153C29.3105 65.0477 30.5963 63.7619 30.5963 62.1667V42.8334C30.5963 41.2381 29.3105 39.9524 27.7153 39.9524H26.7153V35.5H28.0248C32.3344 35.5 35.8344 31.381 35.8344 26.3334V14.8334C35.8344 13.5238 34.7629 12.4524 33.4534 12.4524H33.4296Z" fill="#93D500"/>
<path id="Vector_2" d="M59.7587 22.2143C59.7587 14.3334 54.9729 7.92859 49.0444 7.92859C43.1158 7.92859 38.3301 14.3334 38.3301 22.2143C38.3301 29 41.9015 34.6905 46.6634 36.1429V39.9762H45.6634C44.0682 39.9762 42.7825 41.2619 42.7825 42.8572V62.1905C42.7825 63.7857 44.0682 65.0714 45.6634 65.0714H52.4491C54.0444 65.0714 55.3301 63.7857 55.3301 62.1905V42.8572C55.3301 41.2619 54.0444 39.9762 52.4491 39.9762H51.4491V36.1429C56.211 34.6905 59.7825 29.0238 59.7825 22.2143H59.7587ZM51.3301 31.881C50.5444 31.881 49.7825 31.5 49.3301 30.8095C48.6158 29.7143 48.9015 28.2619 49.9729 27.5238C50.1396 27.4048 50.9253 26.7381 51.4253 25.3572C51.7825 24.3334 51.9729 22.9524 51.5682 21.0714C51.3063 19.7857 52.1396 18.5238 53.4253 18.2619C54.711 18 55.9729 18.8334 56.2348 20.1191C57.8539 27.9762 52.8301 31.3572 52.6158 31.5C52.2348 31.7381 51.8301 31.8572 51.4253 31.881C51.4015 31.881 51.3539 31.881 51.3301 31.881Z" fill="#93D500"/>
</g>
<defs>
<clipPath id="clip0_2871_1314">
<rect width="71.4286" height="71.4286" fill="white" transform="translate(0.570312 0.785706)"/>
</clipPath>
</defs>
</svg>
